# xmcd
#
# Track frame offsets:
#	183
#	12563
#	24178
#	35655
#	49050
#	63140
#	76143
#	85598
#	94745
#	105335
#	116173
#	128600
#	136795
#	147375
#	161210
#	171835
#	183205
#	196735
#
# Disc length: 2795 seconds
#
# Revision: 5
# Processed by: cddbd v1.4PL0 Copyright (c) Steve Scherf et al.
# Submitted via: MusicWizard 6.0.0
#
DISCID=df0ae912
DTITLE=Various Artist - ALL-TIME 75: COUNTRY and WESTERN
DYEAR=1900
DGENRE=Country
TTITLE0=JOHNNY CASH - I WALK THE LINE
TTITLE1=PATSY CLINE - WALKING AFTER MIDNIGHT
TTITLE2=GEORGE JONES - WHITE LIGHTING
TTITLE3=PATTI PAGE - TENNESSEE WALTZ
TTITLE4=FRANKIE LANE - DON'T FENCE ME IN
TTITLE5=STONEWALL JACKSON - I WASHED MY HANDS IN MUDDY WATERS
TTITLE6=MERLE TRAVIS - 16 TONS
TTITLE7=BOB LUMAN - LET'S THINK ABOUT LIVING
TTITLE8=CARL BELEW - AM I THAT EASY TO FORGET
TTITLE9=GEORGE JONES - TENDER YEARS
TTITLE10=FRANKIE LANE - HIGH NOON
TTITLE11=JOHNNY CASH - SUGARTIME
TTITLE12=STONEWALL JACKSON - WATERLOO
TTITLE13=FREDDY FENDER - BABY I WANT TO LOVE YOU ME
TTITLE14=DEL WOOD - SNOWBIRD
TTITLE15=COWBOY COPAS - COUNTRY BOY
TTITLE16=WILLIE NELSON - THE LAST LETTER
TTITLE17=FRANKIE LANE - MOONLIGHT GAMBLER
EXTD=
EXTT0=
EXTT1=
EXTT2=
EXTT3=
EXTT4=
EXTT5=
EXTT6=
EXTT7=
EXTT8=
EXTT9=
EXTT10=
EXTT11=
EXTT12=
EXTT13=
EXTT14=
EXTT15=
EXTT16=
EXTT17=
PLAYORDER=
